<svg width="1000" height="1000" viewBox="0 0 1000 1000" fill="none" xmlns="http://www.w3.org/2000/svg">
<circle cx="498.401" cy="498.402" r="453.401" fill="#171518"/>
<circle cx="498.401" cy="498.402" r="440.689" fill="#2A2B2F"/>
<mask id="mask0_16_74" style="mask-type:alpha" maskUnits="userSpaceOnUse" x="45" y="45" width="910" height="910">
<circle cx="499.695" cy="499.695" r="454.695" fill="#161618"/>
</mask>
<g mask="url(#mask0_16_74)">
<circle cx="498.721" cy="498.723" r="481.052" fill="#161618"/>
</g>
<g filter="url(#filter0_d_16_74)">
<path fill-rule="evenodd" clip-rule="evenodd" d="M182.76 499.307C182.76 674.132 324.483 815.855 499.307 815.855C674.132 815.855 815.855 674.132 815.855 499.307C815.855 324.483 674.132 182.76 499.307 182.76C324.483 182.76 182.76 324.483 182.76 499.307ZM103 499.307C103 718.182 280.433 895.615 499.307 895.615C718.182 895.615 895.615 718.182 895.615 499.307C895.615 280.433 718.182 103 499.307 103C280.433 103 103 280.433 103 499.307Z" fill="url(#paint0_linear_16_74)"/>
</g>
<path fill-rule="evenodd" clip-rule="evenodd" d="M423.699 739.953C455.967 801.032 485.95 810.87 496.815 810.87C507.68 810.87 537.663 801.032 569.931 739.953C600.173 682.709 621.44 597.771 621.44 499.307C621.44 400.844 600.173 315.906 569.931 258.662C537.663 197.583 507.68 187.745 496.815 187.745C485.95 187.745 455.967 197.583 423.699 258.662C393.457 315.906 372.19 400.844 372.19 499.307C372.19 597.771 393.457 682.709 423.699 739.953ZM287.445 499.307C287.445 718.182 381.183 895.615 496.815 895.615C612.447 895.615 706.185 718.182 706.185 499.307C706.185 280.433 612.447 103 496.815 103C381.183 103 287.445 280.433 287.445 499.307Z" fill="url(#paint1_radial_16_74)"/>
<path fill-rule="evenodd" clip-rule="evenodd" d="M739.953 549.991C801.032 517.722 810.87 487.74 810.87 476.875C810.87 466.01 801.032 436.027 739.953 403.759C682.709 373.517 597.771 352.25 499.308 352.25C400.844 352.25 315.906 373.517 258.662 403.759C197.583 436.027 187.745 466.01 187.745 476.875C187.745 487.74 197.583 517.722 258.662 549.991C315.906 580.233 400.844 601.5 499.308 601.5C597.771 601.5 682.709 580.233 739.953 549.991ZM499.308 686.245C718.182 686.245 895.615 592.507 895.615 476.875C895.615 361.243 718.182 267.505 499.308 267.505C280.433 267.505 103 361.243 103 476.875C103 592.507 280.433 686.245 499.308 686.245Z" fill="url(#paint2_linear_16_74)"/>
<mask id="mask1_16_74" style="mask-type:alpha" maskUnits="userSpaceOnUse" x="272" y="227" width="175" height="181">
<rect x="272.49" y="227.625" width="174.475" height="179.46" fill="#D9D9D9"/>
</mask>
<g mask="url(#mask1_16_74)">
<path fill-rule="evenodd" clip-rule="evenodd" d="M423.699 739.953C455.967 801.032 485.95 810.87 496.815 810.87C507.68 810.87 537.663 801.032 569.931 739.953C600.173 682.709 621.44 597.771 621.44 499.307C621.44 400.844 600.173 315.906 569.931 258.662C537.663 197.583 507.68 187.745 496.815 187.745C485.95 187.745 455.967 197.583 423.699 258.662C393.457 315.906 372.19 400.844 372.19 499.307C372.19 597.771 393.457 682.709 423.699 739.953ZM287.445 499.307C287.445 718.182 381.183 895.615 496.815 895.615C612.447 895.615 706.185 718.182 706.185 499.307C706.185 280.433 612.447 103 496.815 103C381.183 103 287.445 280.433 287.445 499.307Z" fill="url(#paint3_radial_16_74)"/>
</g>
<mask id="mask2_16_74" style="mask-type:alpha" maskUnits="userSpaceOnUse" x="566" y="546" width="176" height="181">
<rect x="566.605" y="546.665" width="174.475" height="179.46" fill="#D9D9D9"/>
</mask>
<g mask="url(#mask2_16_74)">
<path fill-rule="evenodd" clip-rule="evenodd" d="M423.699 739.953C455.967 801.032 485.95 810.87 496.815 810.87C507.68 810.87 537.663 801.032 569.931 739.953C600.173 682.709 621.44 597.771 621.44 499.307C621.44 400.844 600.173 315.906 569.931 258.662C537.663 197.583 507.68 187.745 496.815 187.745C485.95 187.745 455.967 197.583 423.699 258.662C393.457 315.906 372.19 400.844 372.19 499.307C372.19 597.771 393.457 682.709 423.699 739.953ZM287.445 499.307C287.445 718.182 381.183 895.615 496.815 895.615C612.447 895.615 706.185 718.182 706.185 499.307C706.185 280.433 612.447 103 496.815 103C381.183 103 287.445 280.433 287.445 499.307Z" fill="url(#paint4_radial_16_74)"/>
</g>
<g clip-path="url(#clip0_16_74)">
<path d="M435.749 467.959L456.052 451H428.228L413.132 463.16V451H388V502H413.132V486.455L419.025 481.656L434.324 502H461.747L435.749 467.959Z" fill="white"/>
<path d="M505.572 451L496.757 466.912L487.816 451H460.197L484.104 485.321V502H509.236V485.321L533.144 451H505.572Z" fill="white"/>
<path d="M602.021 451H542.465C536.761 455.323 533.7 461.741 533.7 470.663V480.522C533.7 490.808 537.806 497.763 545.366 502H599.104C606.786 497.73 611 490.74 611 480.522V470.663C611 461.807 607.853 455.358 602.021 451ZM585.609 479.475C585.609 487.764 580.756 491.689 572.35 491.689C563.944 491.689 559.005 487.764 559.005 479.475V471.623C559.005 463.421 564.03 459.408 572.35 459.408C580.67 459.408 585.609 463.421 585.609 471.623V479.475Z" fill="white"/>
</g>
<defs>
<filter id="filter0_d_16_74" x="99" y="103" width="800.615" height="800.615" filterUnits="userSpaceOnUse" color-interpolation-filters="sRGB">
<feFlood flood-opacity="0" result="BackgroundImageFix"/>
<feColorMatrix in="SourceAlpha" type="matrix" values="0 0 0 0 0 0 0 0 0 0 0 0 0 0 0 0 0 0 127 0" result="hardAlpha"/>
<feOffset dy="4"/>
<feGaussianBlur stdDeviation="2"/>
<feComposite in2="hardAlpha" operator="out"/>
<feColorMatrix type="matrix" values="0 0 0 0 0 0 0 0 0 0 0 0 0 0 0 0 0 0 0.25 0"/>
<feBlend mode="normal" in2="BackgroundImageFix" result="effect1_dropShadow_16_74"/>
<feBlend mode="normal" in="SourceGraphic" in2="effect1_dropShadow_16_74" result="shape"/>
</filter>
<linearGradient id="paint0_linear_16_74" x1="479.368" y1="823.332" x2="474.385" y2="78.0751" gradientUnits="userSpaceOnUse">
<stop stop-color="#8364E8"/>
<stop offset="0.05" stop-color="#7E6AE9"/>
<stop offset="0.11" stop-color="#707BED"/>
<stop offset="0.18" stop-color="#5A97F4"/>
<stop offset="0.26" stop-color="#3DBCFE"/>
<stop offset="0.37" stop-color="#328AFA"/>
<stop offset="0.47" stop-color="#2A61F7"/>
<stop offset="0.646687" stop-color="#2A61F7"/>
<stop offset="0.848436" stop-color="#8364E8"/>
</linearGradient>
<radialGradient id="paint1_radial_16_74" cx="0" cy="0" r="1" gradientUnits="userSpaceOnUse" gradientTransform="translate(559.088 504.089) rotate(-76.94) scale(253.518 457.021)">
<stop stop-color="#8364E8"/>
<stop offset="0.28" stop-color="#2A61F7"/>
<stop offset="0.53" stop-color="#2A61F7"/>
<stop offset="0.63" stop-color="#328AFA"/>
<stop offset="0.74" stop-color="#3DBCFE"/>
<stop offset="0.82" stop-color="#5A97F4"/>
<stop offset="0.89" stop-color="#707BED"/>
<stop offset="0.95" stop-color="#7E6AE9"/>
<stop offset="1" stop-color="#8364E8"/>
</radialGradient>
<linearGradient id="paint2_linear_16_74" x1="444.146" y1="684.238" x2="485.921" y2="162.441" gradientUnits="userSpaceOnUse">
<stop stop-color="#8364E8"/>
<stop offset="0.05" stop-color="#7E6AE9"/>
<stop offset="0.11" stop-color="#707BED"/>
<stop offset="0.18" stop-color="#5A97F4"/>
<stop offset="0.26" stop-color="#3DBCFE"/>
<stop offset="0.37" stop-color="#328AFA"/>
<stop offset="0.47" stop-color="#2A61F7"/>
<stop offset="0.680657" stop-color="#2A61F7"/>
<stop offset="1" stop-color="#8364E8"/>
</linearGradient>
<radialGradient id="paint3_radial_16_74" cx="0" cy="0" r="1" gradientUnits="userSpaceOnUse" gradientTransform="translate(559.088 504.089) rotate(-76.94) scale(253.518 457.021)">
<stop stop-color="#8364E8"/>
<stop offset="0.28" stop-color="#2A61F7"/>
<stop offset="0.53" stop-color="#2A61F7"/>
<stop offset="0.63" stop-color="#328AFA"/>
<stop offset="0.74" stop-color="#3DBCFE"/>
<stop offset="0.82" stop-color="#5A97F4"/>
<stop offset="0.89" stop-color="#707BED"/>
<stop offset="0.95" stop-color="#7E6AE9"/>
<stop offset="1" stop-color="#8364E8"/>
</radialGradient>
<radialGradient id="paint4_radial_16_74" cx="0" cy="0" r="1" gradientUnits="userSpaceOnUse" gradientTransform="translate(559.088 504.089) rotate(-76.94) scale(253.518 457.021)">
<stop stop-color="#8364E8"/>
<stop offset="0.28" stop-color="#2A61F7"/>
<stop offset="0.53" stop-color="#2A61F7"/>
<stop offset="0.63" stop-color="#328AFA"/>
<stop offset="0.74" stop-color="#3DBCFE"/>
<stop offset="0.82" stop-color="#5A97F4"/>
<stop offset="0.89" stop-color="#707BED"/>
<stop offset="0.95" stop-color="#7E6AE9"/>
<stop offset="1" stop-color="#8364E8"/>
</radialGradient>
<clipPath id="clip0_16_74">
<rect width="223" height="51" fill="white" transform="translate(388 451)"/>
</clipPath>
</defs>
</svg>
